<svg width="1024" height="500" viewBox="0 0 1024 500" fill="none" xmlns="http://www.w3.org/2000/svg">
<g clip-path="url(#clip0_1_2)">
<g clip-path="url(#clip1_1_2)">
<path opacity="0.1" d="M445.771 500C685.981 516.181 874.561 490.766 874.561 479.376C874.561 467.986 682.585 458.753 445.771 458.753C208.957 458.753 16.9818 467.986 16.9818 479.376C16.9818 490.766 208.957 500 445.771 500Z" fill="#E71515"/>
<path d="M551.617 67.9338V65.2884H546.355V67.9338H551.617Z" fill="url(#paint0_linear_1_2)"/>
<path d="M551.644 297.012C551.275 297.012 550.907 297.052 550.53 297.058C550.654 296.673 550.696 296.276 550.653 295.881C550.545 294.213 549.946 292.584 548.899 291.113C548.254 290.246 547.527 289.415 546.723 288.626C544.338 286.139 542.128 283.6 539.505 281.252C538.368 280.34 537.429 279.297 536.725 278.164C536.46 277.552 536.144 276.953 535.777 276.371C535.27 275.777 534.556 275.299 533.713 274.99C532.87 274.681 531.931 274.552 530.997 274.619C529.121 274.785 527.395 275.474 526.156 276.55C525.419 277.145 524.814 278.064 525.428 278.739C526.042 279.413 527.375 279.499 527.454 280.24C527.454 280.637 527.454 281.285 526.919 281.411C525.969 281.6 525.064 281.899 524.235 282.297C523.825 282.502 523.484 282.776 523.239 283.097C522.994 283.419 522.852 283.779 522.823 284.149C524.34 284.321 525.612 283.362 526.989 282.826C528.737 282.264 530.699 282.21 532.497 282.674C533.188 282.813 533.833 283.058 534.392 283.395C534.884 283.759 535.298 284.178 535.62 284.638C537.309 286.48 538.353 288.614 538.654 290.842L539.426 294.558C538.284 294.627 537.148 294.742 536.023 294.902C532.994 295.239 529.904 295.081 526.963 294.439C523.893 293.778 520.823 292.574 517.657 293.117C516.175 293.361 514.824 293.983 513.324 294.162C512.152 294.247 510.97 294.2 509.816 294.023L507.404 293.732C507.325 293.58 507.264 293.421 507.202 293.262C506.704 291.936 506.473 290.56 506.518 289.182C508.091 289.118 509.619 288.765 510.969 288.154C512.319 287.542 513.45 286.691 514.264 285.674C515.077 284.657 515.548 283.505 515.635 282.319C515.722 281.133 515.422 279.95 514.763 278.871C516.063 278.321 517.14 277.514 517.876 276.537L517.262 276.451L517.841 275.789C517.705 275.727 517.59 275.641 517.505 275.539C517.42 275.437 517.367 275.322 517.351 275.202C517.335 275.082 517.356 274.961 517.412 274.849C517.468 274.736 517.558 274.635 517.675 274.553C517.164 274.353 516.592 274.257 516.017 274.275C516.201 274.017 515.903 273.699 515.543 273.613C515.168 273.556 514.785 273.538 514.403 273.561C513.844 273.528 513.294 273.432 512.772 273.276C509.027 272.304 504.966 271.451 501.151 272.264C499.469 272.66 497.897 273.283 496.511 274.103C495.16 274.675 494.151 275.615 493.691 276.731C493.231 277.846 493.355 279.053 494.038 280.101C494.616 281.185 495.031 282.314 495.274 283.468C495.328 284.545 495.165 285.622 494.792 286.662C495.627 286.854 496.48 286.997 497.344 287.092C496.857 288.512 495.995 289.844 494.809 291.007C494.266 291.522 493.68 292.01 493.055 292.469H492.95C491.211 292.714 489.454 292.877 487.688 292.958C485.828 292.958 484.004 292.429 482.153 292.528C481.057 292.621 479.977 292.805 478.934 293.077C474.12 294.141 469.119 294.645 464.103 294.572L463.498 294.618L464.059 291.92C464.361 289.692 465.405 287.558 467.094 285.716C467.416 285.256 467.83 284.837 468.322 284.473C468.883 284.136 469.531 283.891 470.225 283.752C472.02 283.288 473.979 283.342 475.724 283.904C477.101 284.413 478.356 285.372 479.899 285.227C479.868 284.856 479.723 284.497 479.477 284.175C479.23 283.854 478.888 283.58 478.478 283.375C477.65 282.977 476.744 282.678 475.794 282.489C475.286 282.363 475.216 281.715 475.259 281.318C475.338 280.577 476.733 280.419 477.285 279.81C477.838 279.202 477.286 278.223 476.558 277.621C475.317 276.548 473.591 275.862 471.716 275.697C470.784 275.63 469.846 275.759 469.004 276.068C468.162 276.377 467.45 276.855 466.945 277.449C466.572 278.03 466.253 278.628 465.989 279.242C465.284 280.375 464.346 281.418 463.208 282.33C460.577 284.678 458.376 287.217 455.99 289.704C455.192 290.493 454.465 291.321 453.815 292.184C452.773 293.66 452.174 295.29 452.061 296.959C452.018 297.356 452.059 297.756 452.184 298.143C452.125 298.236 452.092 298.337 452.087 298.441C452.114 298.621 452.189 298.796 452.306 298.955C452.424 299.114 452.582 299.254 452.771 299.366C454.113 300.385 455.525 301.436 457.332 301.873C458.456 302.074 459.596 302.222 460.744 302.316C463.515 302.693 466.068 303.903 468.883 303.897C470.821 303.897 472.733 303.315 474.645 303.52C477.277 303.791 479.171 305.405 480.785 306.972C482.156 308.195 483.185 309.615 483.811 311.145C484.434 312.99 484.048 315.067 485.355 316.694C485.684 317.026 485.939 317.397 486.109 317.792C486.136 318.416 485.952 319.035 485.574 319.59C484.469 322.15 486.889 324.881 486.635 327.527C486.512 328.816 485.758 330.033 485.679 331.323C485.548 332.983 486.442 334.841 485.214 336.223C485.96 335.932 486.714 335.675 487.486 335.443C483.802 343.584 480.469 351.977 480.724 360.535C480.917 366.083 482.478 372.194 478.25 376.751C477.65 377.294 477.172 377.909 476.838 378.57C476.505 379.462 476.838 380.408 477.057 381.321C477.838 385.289 474.996 389.198 474.803 393.225C474.781 394.466 474.887 395.707 475.119 396.935L476.154 403.641C475.111 403.813 474.141 404.176 473.33 404.7C472.242 405.361 471.286 406.446 471.795 407.438C472.207 408.238 473.418 408.621 474.532 408.82C475.674 408.916 476.766 409.228 477.707 409.726C478.007 409.977 478.327 410.215 478.662 410.44C479.311 410.705 480.054 410.809 480.785 410.738C482.127 410.698 483.416 410.612 484.784 410.473C485.068 410.464 485.344 410.398 485.583 410.281C485.743 410.148 485.865 409.991 485.942 409.82C486.019 409.65 486.049 409.469 486.03 409.289C486.128 408.283 486.072 407.271 485.863 406.274C485.811 406.082 485.74 405.897 485.67 405.705C486.131 404.855 486.458 403.967 486.644 403.059C486.916 401.737 486.96 400.354 487.074 398.999C487.337 395.546 487.951 392.121 488.652 388.695L489.529 384.29C489.801 382.842 490.082 381.394 490.407 379.945C492.033 372.101 494.562 364.378 497.967 356.864C498.712 355.257 499.984 353.372 502.238 353.326L503.58 355.31C505.334 357.797 506.404 360.554 507.737 363.167C509.492 366.599 508.895 370.607 511.246 373.834C511.632 374.37 512.123 374.879 512.412 375.441C512.828 376.307 513.07 377.214 513.131 378.133L514.684 390.037C515.386 395.388 516.14 400.884 519.324 405.692C519.523 406.002 519.758 406.298 520.025 406.578C519.927 407.378 519.913 408.183 519.981 408.985C519.932 409.127 519.928 409.275 519.968 409.419C520.008 409.562 520.092 409.696 520.213 409.811C520.333 409.926 520.488 410.018 520.664 410.08C520.84 410.142 521.033 410.173 521.227 410.169C522.551 410.301 523.858 410.387 525.218 410.427C525.949 410.498 526.692 410.394 527.34 410.129C527.683 409.908 528.005 409.669 528.305 409.415C529.243 408.917 530.331 408.606 531.471 408.509C532.585 408.317 533.795 407.934 534.208 407.127C534.725 406.135 533.76 405.057 532.673 404.389C531.791 403.808 530.708 403.429 529.55 403.298C529.074 403.318 528.596 403.289 528.129 403.212C528.238 402.776 528.273 402.331 528.235 401.889C528.122 401.369 528.093 400.84 528.147 400.315C528.326 399.784 528.567 399.266 528.866 398.767C529.875 396.426 527.726 394.045 526.972 391.651C525.963 388.463 527.463 385.124 527.191 381.85C526.77 376.711 522.016 371.89 523.279 366.831C524.288 362.783 523.428 358.623 522.472 354.569L518.964 339.484C518.717 338.259 518.291 337.059 517.692 335.906C518.343 335.821 518.983 335.693 519.604 335.522C520.481 333.909 520.332 332.13 520.069 330.397C519.806 328.664 519.192 326.971 518.885 325.252C518.619 323.869 518.467 322.475 518.429 321.079C518.333 319.701 518.463 318.319 518.815 316.965C519.218 315.776 519.767 314.618 520.455 313.506C522.152 310.295 524.206 307.198 526.595 304.247C530.199 304.036 533.69 303.804 537.286 303.586C538.148 303.556 539.005 303.47 539.847 303.328C540.92 303.049 542.012 302.813 543.119 302.62C543.531 302.604 543.939 302.544 544.329 302.442C545.118 302.171 545.601 301.41 546.469 301.384C546.795 301.416 547.125 301.416 547.451 301.384C547.837 301.291 548.03 300.974 548.328 300.722C548.872 300.266 549.758 300.173 550.468 299.876C551.078 299.577 551.529 299.127 551.744 298.604C551.958 298.081 551.923 297.518 551.644 297.012V297.012Z" fill="url(#paint1_linear_1_2)"/>
<path d="M506.018 289.777C511.347 289.777 515.666 286.52 515.666 282.502C515.666 278.484 511.347 275.227 506.018 275.227C500.69 275.227 496.371 278.484 496.371 282.502C496.371 286.52 500.69 289.777 506.018 289.777Z" fill="#A1616A"/>
<path d="M494.879 291.556C493.894 292.47 492.792 293.309 491.59 294.062C497.259 296.61 503.995 297.447 510.448 296.404C510.211 295.908 509.351 295.835 508.746 295.583C507.96 295.163 507.425 294.526 507.255 293.811C506.605 292.068 506.414 290.246 506.694 288.448C506.812 288.011 506.812 287.561 506.694 287.125C506.357 286.47 505.71 285.933 504.878 285.617C503.512 284.974 502.037 284.474 500.493 284.129C498.896 283.772 497.984 283.606 497.923 285.008C497.858 287.38 496.792 289.673 494.879 291.556V291.556Z" fill="#A1616A"/>
<path d="M539.645 296.132L538.663 291.437C538.504 290.492 538.243 289.559 537.882 288.646C537.294 287.461 536.541 286.326 535.637 285.26C535.315 284.802 534.901 284.385 534.409 284.023C533.851 283.686 533.206 283.441 532.515 283.302C530.722 282.84 528.765 282.896 527.024 283.461C525.647 283.964 524.393 284.916 522.858 284.751C522.887 284.381 523.031 284.021 523.277 283.7C523.524 283.38 523.867 283.108 524.279 282.905C525.089 282.508 525.977 282.209 526.91 282.019C527.41 281.9 527.489 281.252 527.445 280.855C527.366 280.121 525.972 279.962 525.419 279.361C524.867 278.759 525.419 277.78 526.138 277.178C527.377 276.109 529.101 275.427 530.971 275.267C531.902 275.197 532.84 275.322 533.682 275.629C534.524 275.936 535.237 276.413 535.742 277.006C536.115 277.584 536.434 278.181 536.698 278.792C537.403 279.92 538.338 280.958 539.47 281.867C542.101 284.202 544.303 286.728 546.679 289.201C547.475 289.99 548.201 290.816 548.855 291.675C549.9 293.14 550.5 294.762 550.609 296.423C550.687 296.934 550.587 297.452 550.319 297.925C550.048 298.269 549.663 298.555 549.202 298.754C548.741 298.953 548.219 299.059 547.688 299.062C546.61 299.042 545.545 298.881 544.539 298.586L540.715 297.614C540.25 297.536 539.824 297.359 539.487 297.105C539.349 296.957 539.288 296.775 539.317 296.595C539.346 296.416 539.463 296.251 539.645 296.132V296.132Z" fill="#A1616A"/>
<path d="M463.209 297.171L464.182 292.475C464.348 291.531 464.612 290.598 464.971 289.684C465.556 288.498 466.309 287.363 467.217 286.298C467.53 285.84 467.942 285.425 468.436 285.068C468.991 284.728 469.637 284.482 470.33 284.347C472.125 283.883 474.085 283.937 475.83 284.499C477.207 285.002 478.461 285.954 479.996 285.789C479.966 285.419 479.821 285.06 479.575 284.74C479.328 284.419 478.986 284.147 478.575 283.944C477.764 283.548 476.876 283.249 475.944 283.058C475.444 282.939 475.365 282.29 475.409 281.894C475.488 281.16 476.873 281.001 477.435 280.399C477.996 279.797 477.435 278.818 476.707 278.223C475.47 277.151 473.746 276.467 471.874 276.305C470.943 276.236 470.005 276.361 469.164 276.668C468.322 276.975 467.609 277.451 467.103 278.045C466.733 278.623 466.416 279.219 466.155 279.83C465.448 280.957 464.513 281.995 463.384 282.905C460.753 285.24 458.551 287.766 456.166 290.24C455.372 291.027 454.648 291.854 453.999 292.713C452.958 294.179 452.359 295.801 452.245 297.462C452.17 297.975 452.273 298.495 452.543 298.97C452.821 299.317 453.213 299.604 453.682 299.802C454.151 300.001 454.681 300.103 455.218 300.101C456.294 300.084 457.357 299.922 458.358 299.624L462.191 298.679C462.655 298.602 463.079 298.425 463.41 298.169C463.555 298.016 463.614 297.826 463.577 297.639C463.539 297.453 463.407 297.285 463.209 297.171Z" fill="#A1616A"/>
<path d="M532.673 404.362C533.76 405.024 534.716 406.102 534.208 407.087C533.787 407.887 532.585 408.264 531.471 408.463C530.333 408.56 529.245 408.869 528.305 409.362C528.007 409.605 527.688 409.833 527.349 410.043C526.702 410.311 525.958 410.416 525.226 410.341C523.893 410.301 522.595 410.215 521.236 410.083C520.952 410.074 520.676 410.008 520.437 409.891C520.277 409.759 520.155 409.603 520.079 409.434C520.004 409.264 519.976 409.084 519.999 408.906C519.893 407.904 519.946 406.896 520.157 405.903C520.378 404.906 521.058 404 522.078 403.344C523.095 402.749 526.182 400.983 527.34 402.114C527.647 402.418 527.524 402.834 527.954 403.086C528.384 403.337 529.059 403.198 529.55 403.245C530.712 403.384 531.795 403.772 532.673 404.362Z" fill="#3F3D56"/>
<path d="M473.409 404.706C472.321 405.367 471.365 406.445 471.874 407.431C472.286 408.231 473.488 408.615 474.602 408.807C475.74 408.903 476.828 409.212 477.768 409.706C478.067 409.96 478.39 410.199 478.733 410.42C479.378 410.684 480.118 410.788 480.846 410.718C482.179 410.678 483.478 410.592 484.837 410.453C485.121 410.445 485.397 410.379 485.635 410.261C485.797 410.13 485.921 409.975 485.998 409.805C486.075 409.635 486.104 409.455 486.082 409.276C486.181 408.276 486.125 407.271 485.916 406.28C485.7 405.28 485.019 404.37 483.995 403.714C482.986 403.119 479.899 401.353 478.733 402.484C478.426 402.788 478.548 403.211 478.11 403.456C477.671 403.701 477.013 403.569 476.514 403.615C475.363 403.751 474.287 404.129 473.409 404.706Z" fill="#3F3D56"/>
<path d="M488.319 334.14C484.363 342.738 480.522 351.633 480.82 360.753C481.013 366.275 482.574 372.36 478.355 376.89C477.754 377.43 477.276 378.043 476.943 378.702C476.61 379.588 476.943 380.527 477.154 381.44C477.943 385.408 475.11 389.283 474.909 393.291C474.887 394.526 474.992 395.76 475.224 396.982L476.321 404.045C476.689 406.465 480.829 407.457 484.021 407.795C485.523 406.444 486.465 404.79 486.731 403.04C487.003 401.717 487.047 400.348 487.152 399.005C487.424 395.566 488.082 392.154 488.731 388.748L489.608 384.363C489.889 382.921 490.161 381.48 490.485 380.038C492.123 372.253 494.656 364.59 498.054 357.135C498.8 355.528 500.072 353.657 502.317 353.61L503.659 355.555C505.413 358.022 506.474 360.773 507.808 363.372C509.562 366.791 508.956 370.772 511.316 373.993C511.702 374.522 512.193 375.031 512.474 375.587C512.885 376.437 513.127 377.329 513.193 378.232L514.745 390.057C515.447 395.381 516.192 400.85 519.376 405.632C519.691 406.204 520.196 406.704 520.841 407.087C522.139 407.748 523.954 407.411 525.226 406.723C526.232 406.165 527.037 405.426 527.567 404.574C528.097 403.721 528.335 402.782 528.261 401.842C528.157 401.324 528.128 400.798 528.173 400.275C528.359 399.748 528.6 399.233 528.892 398.734C529.91 396.406 527.761 394.039 526.998 391.658C525.989 388.483 527.489 385.163 527.226 381.903C526.805 376.784 522.06 371.983 523.314 366.95C524.323 362.922 523.463 358.782 522.516 354.748L518.964 339.735C518.403 337.368 517.561 334.696 514.763 333.538C513.159 332.997 511.401 332.769 509.649 332.877C502.396 332.877 495.467 333.638 488.319 334.14Z" fill="#3F3D56"/>
<path d="M551.644 297.548C549.09 297.742 546.518 297.34 544.276 296.397C543.425 295.97 542.516 295.611 541.566 295.326C539.812 294.896 537.882 295.273 536.041 295.478C533.017 295.808 529.935 295.65 526.998 295.015C523.928 294.353 520.858 293.156 517.701 293.692C516.219 293.937 514.877 294.552 513.377 294.73C512.205 294.82 511.022 294.773 509.869 294.591L499.87 293.414C497.614 293.074 495.309 292.949 493.011 293.044C491.272 293.288 489.515 293.454 487.749 293.54C485.898 293.54 484.074 293.011 482.223 293.103C481.13 293.197 480.054 293.381 479.013 293.652C474.21 294.711 469.221 295.212 464.217 295.14C460.227 295.338 456.382 296.343 453.087 298.05C452.86 298.145 452.663 298.277 452.511 298.436C452.36 298.595 452.257 298.777 452.21 298.97C452.239 299.149 452.315 299.322 452.434 299.479C452.553 299.635 452.713 299.773 452.903 299.882C454.236 300.901 455.648 301.946 457.455 302.382C458.576 302.581 459.713 302.727 460.858 302.819C463.621 303.202 466.173 304.399 468.98 304.399C470.918 304.399 472.821 303.817 474.733 304.022C477.364 304.293 479.25 305.894 480.873 307.455C482.237 308.674 483.266 310.086 483.899 311.608C484.513 313.447 484.127 315.51 485.434 317.13C485.761 317.461 486.016 317.829 486.188 318.221C486.216 318.844 486.032 319.461 485.653 320.014C484.548 322.56 486.968 325.252 486.714 327.95C486.591 329.226 485.837 330.443 485.758 331.72C485.635 333.38 486.521 335.225 485.293 336.6C490.031 334.8 495.296 333.934 500.598 334.081C501.48 334.097 502.359 334.159 503.229 334.266C504.92 334.526 506.585 334.875 508.211 335.311C511.877 336.19 515.912 336.819 519.525 335.813C520.402 334.206 520.253 332.434 519.981 330.714C519.709 328.995 519.148 327.302 518.806 325.589C518.54 324.213 518.388 322.826 518.35 321.436C518.254 320.064 518.384 318.689 518.736 317.342C519.138 316.159 519.687 315.008 520.376 313.903C522.069 310.69 524.123 307.593 526.516 304.644C530.112 304.426 533.594 304.194 537.19 303.983C538.048 303.947 538.901 303.861 539.742 303.725C540.813 303.449 541.902 303.215 543.005 303.024C543.418 303.006 543.825 302.944 544.215 302.839C545.004 302.567 545.495 301.813 546.355 301.794C546.681 301.823 547.011 301.823 547.337 301.794C547.723 301.708 547.907 301.384 548.214 301.132C548.758 300.676 549.644 300.583 550.354 300.292C550.951 300.013 551.404 299.59 551.638 299.091C551.873 298.592 551.875 298.048 551.644 297.548V297.548Z" fill="#6C63FF"/>
<path d="M507.694 285.128C507.974 285.294 508.314 285.391 508.67 285.408C509.026 285.425 509.379 285.359 509.685 285.22C510.067 284.948 510.326 284.592 510.421 284.202C510.737 283.375 510.991 282.536 511.184 281.689C511.235 281.319 511.384 280.962 511.623 280.637C512.263 279.896 513.649 279.857 514.728 279.519C516.061 278.976 517.165 278.16 517.911 277.165L517.306 277.072L517.876 276.411C517.741 276.349 517.627 276.264 517.542 276.163C517.458 276.062 517.406 275.948 517.391 275.829C517.375 275.71 517.397 275.59 517.454 275.479C517.511 275.368 517.601 275.268 517.719 275.187C517.207 274.982 516.631 274.884 516.052 274.903C516.236 274.652 515.938 274.334 515.578 274.242C515.207 274.183 514.825 274.168 514.447 274.195C513.887 274.161 513.337 274.063 512.816 273.904C509.079 272.939 505.027 272.086 501.221 272.899C499.539 273.291 497.966 273.912 496.581 274.731C495.241 275.299 494.239 276.232 493.781 277.338C493.323 278.445 493.443 279.641 494.116 280.683C494.691 281.758 495.103 282.879 495.344 284.023C495.401 285.098 495.241 286.172 494.871 287.211C495.909 287.462 496.984 287.62 498.072 287.68C499.167 287.744 500.256 287.509 501.142 287.019C502.019 286.45 502.51 285.571 503.229 284.856C503.505 284.541 503.882 284.284 504.326 284.108C504.769 283.933 505.263 283.844 505.764 283.851C506.738 283.964 506.913 284.711 507.694 285.128Z" fill="#3F3D56"/>
<path d="M482.329 410.043H472.058C471.754 410.089 471.481 410.213 471.284 410.394C471.088 410.575 470.981 410.802 470.981 411.035C470.981 411.269 471.088 411.496 471.284 411.676C471.481 411.857 471.754 411.981 472.058 412.027H474.11V425.168H438.966C438.885 425.065 438.771 424.979 438.635 424.916C438.499 424.854 438.345 424.818 438.186 424.811H427.924C427.62 424.857 427.346 424.981 427.15 425.162C426.954 425.343 426.846 425.569 426.846 425.803C426.846 426.037 426.954 426.264 427.15 426.444C427.346 426.625 427.62 426.749 427.924 426.795H429.976V440.293H396.042C396.012 440.11 395.9 439.939 395.725 439.809C395.55 439.68 395.322 439.599 395.077 439.579H384.824C384.512 439.618 384.229 439.739 384.024 439.92C383.819 440.102 383.707 440.333 383.707 440.571C383.707 440.81 383.819 441.04 384.024 441.222C384.229 441.404 384.512 441.525 384.824 441.563H385.851V455.451H351.355C351.227 455.397 351.082 455.367 350.934 455.366H340.673C340.369 455.412 340.095 455.536 339.899 455.716C339.702 455.897 339.595 456.124 339.595 456.358C339.595 456.591 339.702 456.818 339.899 456.999C340.095 457.18 340.369 457.304 340.673 457.35H341.699V470.577H307.642C307.568 470.446 307.446 470.335 307.291 470.255C307.135 470.175 306.953 470.131 306.765 470.127H296.503C296.199 470.173 295.926 470.297 295.73 470.478C295.533 470.659 295.426 470.885 295.426 471.119C295.426 471.353 295.533 471.579 295.73 471.76C295.926 471.941 296.199 472.065 296.503 472.111H297.529V486.76H529.541V410.043H482.329Z" fill="#9F4529"/>
<path opacity="0.1" d="M151.751 156.283C150.738 155.275 149.588 154.349 148.322 153.519C147.978 153.293 147.708 153.011 147.533 152.693C147.359 152.376 147.284 152.032 147.316 151.689C147.347 151.346 147.484 151.013 147.715 150.717C147.945 150.421 148.264 150.169 148.646 149.981C149.067 149.776 149.48 149.558 149.892 149.319C154.681 146.575 157.101 142.891 155.286 141.086C153.47 139.28 148.111 140.047 143.322 142.792C142.769 143.102 142.239 143.436 141.735 143.791C141.398 144.019 140.996 144.186 140.559 144.277C140.123 144.369 139.664 144.383 139.22 144.319C138.775 144.255 138.355 144.115 137.994 143.908C137.633 143.702 137.341 143.435 137.139 143.129C136.466 142.134 135.677 141.187 134.78 140.299C130.517 136.066 124.799 133.93 122.001 135.53C119.203 137.131 120.378 141.866 124.632 146.112C125.464 146.941 126.388 147.716 127.395 148.427C127.728 148.671 127.98 148.97 128.131 149.302C128.282 149.633 128.327 149.986 128.264 150.333C128.201 150.679 128.031 151.01 127.767 151.298C127.503 151.586 127.153 151.824 126.746 151.991C121.483 154.26 118.51 157.679 120.001 159.643C121.492 161.607 126.948 161.363 132.166 159.101C132.975 158.747 133.754 158.356 134.499 157.93C134.85 157.729 135.256 157.589 135.688 157.521C136.12 157.453 136.566 157.459 136.995 157.537C137.423 157.616 137.823 157.765 138.165 157.975C138.507 158.185 138.783 158.45 138.972 158.75C139.684 159.923 140.566 161.032 141.603 162.057C145.857 166.29 151.584 168.426 154.382 166.825C157.18 165.225 156.005 160.523 151.751 156.283Z" fill="#6C63FF"/>
<path opacity="0.1" d="M772.999 270.571C773.989 269.55 774.832 268.452 775.517 267.298C775.701 266.984 775.979 266.707 776.33 266.488C776.681 266.27 777.095 266.116 777.538 266.039C777.981 265.962 778.443 265.964 778.885 266.044C779.327 266.125 779.738 266.282 780.086 266.504C780.472 266.742 780.876 266.974 781.288 267.205C786.164 269.85 791.549 270.512 793.304 268.693C795.058 266.874 792.532 263.217 787.655 260.558C787.071 260.245 786.486 259.961 785.901 259.705C785.513 259.528 785.186 259.285 784.943 258.996C784.701 258.707 784.55 258.38 784.503 258.04C784.457 257.7 784.515 257.356 784.674 257.036C784.833 256.715 785.088 256.427 785.419 256.194C786.485 255.421 787.454 254.575 788.313 253.667C792.444 249.362 793.479 244.613 790.637 243.086C787.796 241.558 782.13 243.747 777.999 248.079C777.192 248.914 776.479 249.799 775.867 250.724C775.655 251.035 775.349 251.305 774.973 251.51C774.598 251.716 774.163 251.853 773.705 251.909C773.247 251.964 772.778 251.939 772.335 251.833C771.893 251.727 771.489 251.544 771.158 251.3V251.3C766.772 248.198 761.51 247.021 759.484 248.654C757.458 250.288 759.335 254.163 763.729 257.252C764.412 257.728 765.135 258.17 765.895 258.574C766.252 258.769 766.547 259.022 766.759 259.314C766.97 259.606 767.092 259.929 767.117 260.261C767.141 260.593 767.067 260.925 766.899 261.233C766.732 261.541 766.476 261.816 766.149 262.04C764.863 262.909 763.707 263.883 762.703 264.943C758.572 269.249 757.537 273.997 760.387 275.525C763.238 277.052 768.868 274.883 772.999 270.571Z" fill="#6C63FF"/>
<path d="M774.282 492.416C790.654 492.416 803.927 490.492 803.927 488.118C803.927 485.743 790.654 483.819 774.282 483.819C757.909 483.819 744.637 485.743 744.637 488.118C744.637 490.492 757.909 492.416 774.282 492.416Z" fill="#F40B43"/>
<path d="M776.999 491.105C778.907 491.105 780.454 489.58 780.454 487.699C780.454 485.818 778.907 484.293 776.999 484.293C775.09 484.293 773.543 485.818 773.543 487.699C773.543 489.58 775.09 491.105 776.999 491.105Z" fill="#3F3D56"/>
<path d="M776.999 486.938C778.907 486.938 780.454 485.413 780.454 483.532C780.454 481.651 778.907 480.126 776.999 480.126C775.09 480.126 773.543 481.651 773.543 483.532C773.543 485.413 775.09 486.938 776.999 486.938Z" fill="#3F3D56"/>
<path d="M776.999 482.778C778.907 482.778 780.454 481.254 780.454 479.373C780.454 477.491 778.907 475.967 776.999 475.967C775.09 475.967 773.543 477.491 773.543 479.373C773.543 481.254 775.09 482.778 776.999 482.778Z" fill="#3F3D56"/>
<path d="M776.999 478.612C778.907 478.612 780.454 477.087 780.454 475.206C780.454 473.325 778.907 471.8 776.999 471.8C775.09 471.8 773.543 473.325 773.543 475.206C773.543 477.087 775.09 478.612 776.999 478.612Z" fill="#3F3D56"/>
<path d="M776.999 474.445C778.907 474.445 780.454 472.921 780.454 471.039C780.454 469.158 778.907 467.634 776.999 467.634C775.09 467.634 773.543 469.158 773.543 471.039C773.543 472.921 775.09 474.445 776.999 474.445Z" fill="#3F3D56"/>
<path d="M776.999 470.286C778.907 470.286 780.454 468.761 780.454 466.88C780.454 464.999 778.907 463.474 776.999 463.474C775.09 463.474 773.543 464.999 773.543 466.88C773.543 468.761 775.09 470.286 776.999 470.286Z" fill="#3F3D56"/>
<path d="M776.999 466.119C778.907 466.119 780.454 464.594 780.454 462.713C780.454 460.832 778.907 459.307 776.999 459.307C775.09 459.307 773.543 460.832 773.543 462.713C773.543 464.594 775.09 466.119 776.999 466.119Z" fill="#3F3D56"/>
<path d="M789.918 434.215C790.386 433.761 790.813 433.284 791.199 432.787L782.138 431.663L791.944 431.722C792.888 430.179 793.402 428.506 793.457 426.807C793.511 425.107 793.104 423.418 792.26 421.842L779.104 426.987L791.242 420.261C790.101 418.786 788.569 417.504 786.743 416.495C784.918 415.485 782.836 414.768 780.628 414.39C778.42 414.012 776.132 413.98 773.907 414.296C771.681 414.611 769.566 415.269 767.691 416.226C765.816 417.184 764.223 418.422 763.009 419.864C761.795 421.305 760.986 422.919 760.634 424.606C760.281 426.292 760.392 428.016 760.959 429.669C761.526 431.322 762.537 432.869 763.93 434.215C763.197 434.922 762.565 435.684 762.045 436.491L773.824 441.12L761.264 437.946C760.38 439.908 760.158 442.006 760.618 444.049C761.077 446.093 762.203 448.018 763.895 449.651C761.978 451.49 760.786 453.699 760.455 456.025C760.124 458.351 760.667 460.7 762.023 462.804C763.379 464.908 765.493 466.681 768.122 467.923C770.752 469.164 773.791 469.822 776.893 469.822C779.996 469.822 783.035 469.164 785.665 467.923C788.294 466.681 790.408 464.908 791.764 462.804C793.119 460.7 793.663 458.351 793.332 456.025C793.001 453.699 791.809 451.49 789.892 449.651C792.181 447.453 793.426 444.739 793.426 441.943C793.426 439.148 792.181 436.434 789.892 434.235L789.918 434.215Z" fill="#F40B43"/>
<path d="M237.213 492.494C244.624 492.494 250.632 491.623 250.632 490.549C250.632 489.475 244.624 488.605 237.213 488.605C229.802 488.605 223.794 489.475 223.794 490.549C223.794 491.623 229.802 492.494 237.213 492.494Z" fill="#F40B43"/>
<path d="M236.994 491.264C237.856 491.264 238.555 490.574 238.555 489.723C238.555 488.872 237.856 488.182 236.994 488.182C236.132 488.182 235.433 488.872 235.433 489.723C235.433 490.574 236.132 491.264 236.994 491.264Z" fill="#3F3D56"/>
<path d="M236.994 489.379C237.856 489.379 238.555 488.689 238.555 487.838C238.555 486.987 237.856 486.297 236.994 486.297C236.132 486.297 235.433 486.987 235.433 487.838C235.433 488.689 236.132 489.379 236.994 489.379Z" fill="#3F3D56"/>
<path d="M236.994 487.494C237.856 487.494 238.555 486.804 238.555 485.953C238.555 485.102 237.856 484.412 236.994 484.412C236.132 484.412 235.433 485.102 235.433 485.953C235.433 486.804 236.132 487.494 236.994 487.494Z" fill="#3F3D56"/>
<path d="M236.994 485.609C237.856 485.609 238.555 484.919 238.555 484.068C238.555 483.217 237.856 482.527 236.994 482.527C236.132 482.527 235.433 483.217 235.433 484.068C235.433 484.919 236.132 485.609 236.994 485.609Z" fill="#3F3D56"/>
<path d="M236.994 483.724C237.856 483.724 238.555 483.034 238.555 482.183C238.555 481.332 237.856 480.642 236.994 480.642C236.132 480.642 235.433 481.332 235.433 482.183C235.433 483.034 236.132 483.724 236.994 483.724Z" fill="#3F3D56"/>
<path d="M236.994 481.839C237.856 481.839 238.555 481.149 238.555 480.298C238.555 479.447 237.856 478.757 236.994 478.757C236.132 478.757 235.433 479.447 235.433 480.298C235.433 481.149 236.132 481.839 236.994 481.839Z" fill="#3F3D56"/>
<path d="M236.994 479.954C237.856 479.954 238.555 479.265 238.555 478.414C238.555 477.563 237.856 476.873 236.994 476.873C236.132 476.873 235.433 477.563 235.433 478.414C235.433 479.265 236.132 479.954 236.994 479.954Z" fill="#3F3D56"/>
<path d="M242.835 465.511C243.053 465.301 243.249 465.08 243.423 464.849L239.318 464.34H243.756C244.207 463.599 244.441 462.794 244.44 461.979C244.442 461.256 244.257 460.539 243.896 459.869L237.941 462.197L243.432 459.155C242.915 458.488 242.222 457.908 241.396 457.451C240.569 456.993 239.627 456.669 238.628 456.498C237.628 456.327 236.593 456.312 235.586 456.455C234.579 456.599 233.621 456.896 232.773 457.33C231.925 457.763 231.204 458.323 230.654 458.976C230.105 459.628 229.74 460.359 229.58 461.122C229.421 461.885 229.471 462.665 229.728 463.413C229.985 464.162 230.443 464.862 231.074 465.471C230.733 465.788 230.439 466.132 230.197 466.496L235.52 468.586L229.837 467.144C229.441 468.033 229.344 468.981 229.555 469.905C229.766 470.829 230.279 471.698 231.047 472.435C230.176 473.268 229.634 474.268 229.482 475.323C229.33 476.377 229.575 477.443 230.188 478.397C230.802 479.351 231.76 480.156 232.951 480.719C234.143 481.282 235.522 481.581 236.928 481.581C238.335 481.581 239.713 481.282 240.905 480.719C242.097 480.156 243.054 479.351 243.668 478.397C244.282 477.443 244.526 476.377 244.374 475.323C244.223 474.268 243.68 473.268 242.809 472.435C243.848 471.441 244.413 470.212 244.413 468.946C244.413 467.681 243.848 466.452 242.809 465.458L242.835 465.511Z" fill="#F40B43"/>
<path opacity="0.1" d="M229.469 468.996C229.468 470.263 230.034 471.493 231.074 472.488C230.202 473.321 229.66 474.321 229.508 475.376C229.356 476.43 229.601 477.496 230.215 478.45C230.828 479.404 231.786 480.209 232.978 480.772C234.17 481.335 235.548 481.634 236.954 481.634C238.361 481.634 239.739 481.335 240.931 480.772C242.123 480.209 243.08 479.404 243.694 478.45C244.308 477.496 244.553 476.43 244.401 475.376C244.249 474.321 243.706 473.321 242.835 472.488C243.844 471.549 229.469 468.361 229.469 468.996Z" fill="black"/>
</g>
</g>
<defs>
<linearGradient id="paint0_linear_1_2" x1="-4776.49" y1="1616.32" x2="-4744.92" y2="1616.32" gradientUnits="userSpaceOnUse">
<stop stop-color="#808080" stop-opacity="0.25"/>
<stop offset="0.54" stop-color="#808080" stop-opacity="0.12"/>
<stop offset="1" stop-color="#808080" stop-opacity="0.1"/>
</linearGradient>
<linearGradient id="paint1_linear_1_2" x1="59208.8" y1="96478.8" x2="59208.8" y2="67344.5" gradientUnits="userSpaceOnUse">
<stop offset="0.12" stop-color="#808080" stop-opacity="0.25"/>
<stop offset="0.54" stop-color="#808080" stop-opacity="0.12"/>
<stop offset="1" stop-color="#808080" stop-opacity="0.1"/>
</linearGradient>
<clipPath id="clip0_1_2">
<rect width="1024" height="500" fill="white"/>
</clipPath>
<clipPath id="clip1_1_2">
<rect width="1024" height="500" fill="white"/>
</clipPath>
</defs>
</svg>
