<svg width="100" height="100" viewBox="0 0 400 150" fill="none" xmlns="http://www.w3.org/2000/svg">
<g clip-path="url(#clip0_6_30)">
<g filter="url(#filter0_d_6_30)">
<path d="M39.875 93H24.1648V42.0909H40.571C45.5095 42.0909 49.7353 43.1101 53.2486 45.1484C56.7618 47.1702 59.4548 50.0786 61.3274 53.8736C63.2 57.652 64.1364 62.1761 64.1364 67.446C64.1364 72.7491 63.1918 77.3146 61.3026 81.1428C59.4134 84.9543 56.6624 87.8875 53.0497 89.9425C49.437 91.9808 45.0455 93 39.875 93ZM30.3295 87.5312H39.4773C43.6866 87.5312 47.175 86.7192 49.9425 85.0952C52.71 83.4711 54.7732 81.1593 56.1321 78.1598C57.491 75.1603 58.1705 71.589 58.1705 67.446C58.1705 63.3362 57.4993 59.7981 56.157 56.8317C54.8146 53.8487 52.8094 51.5618 50.1413 49.9709C47.4732 48.3634 44.1506 47.5597 40.1733 47.5597H30.3295V87.5312ZM89.6903 93.7955C86.0114 93.7955 82.8378 92.9834 80.1697 91.3594C77.5182 89.7188 75.4716 87.4318 74.0298 84.4986C72.6046 81.5488 71.892 78.1184 71.892 74.2074C71.892 70.2964 72.6046 66.8494 74.0298 63.8665C75.4716 60.867 77.4768 58.5303 80.0455 56.8565C82.6307 55.1662 85.6468 54.321 89.0938 54.321C91.0824 54.321 93.0462 54.6525 94.9851 55.3153C96.924 55.9782 98.6889 57.0554 100.28 58.5469C101.871 60.0218 103.138 61.9773 104.083 64.4134C105.028 66.8494 105.5 69.849 105.5 73.4119V75.8977H76.0682V70.8267H99.5341C99.5341 68.6723 99.1032 66.75 98.2415 65.0597C97.3963 63.3693 96.1866 62.0353 94.6122 61.0575C93.0545 60.0798 91.215 59.5909 89.0938 59.5909C86.7571 59.5909 84.7353 60.1709 83.0284 61.331C81.3381 62.4744 80.0372 63.9659 79.1257 65.8054C78.2143 67.6449 77.7585 69.6169 77.7585 71.7216V75.1023C77.7585 77.9858 78.2557 80.4302 79.25 82.4354C80.2609 84.424 81.6612 85.9403 83.451 86.9844C85.2408 88.0118 87.3206 88.5256 89.6903 88.5256C91.2315 88.5256 92.6236 88.3101 93.8665 87.8793C95.1259 87.4318 96.2114 86.7689 97.1229 85.8906C98.0343 84.9957 98.7386 83.8854 99.2358 82.5597L104.903 84.1506C104.307 86.0729 103.304 87.7633 101.896 89.2216C100.487 90.6634 98.7469 91.7902 96.6754 92.6023C94.6039 93.3977 92.2756 93.7955 89.6903 93.7955Z" fill="#707070"/>
</g>
<g filter="url(#filter1_d_6_30)">
<path d="M186.378 93.7955C182.699 93.7955 179.525 92.9834 176.857 91.3594C174.206 89.7188 172.159 87.4318 170.717 84.4986C169.292 81.5488 168.58 78.1184 168.58 74.2074C168.58 70.2964 169.292 66.8494 170.717 63.8665C172.159 60.867 174.164 58.5303 176.733 56.8565C179.318 55.1662 182.334 54.321 185.781 54.321C187.77 54.321 189.734 54.6525 191.673 55.3153C193.612 55.9782 195.376 57.0554 196.967 58.5469C198.558 60.0218 199.826 61.9773 200.771 64.4134C201.715 66.8494 202.188 69.849 202.188 73.4119V75.8977H172.756V70.8267H196.222C196.222 68.6723 195.791 66.75 194.929 65.0597C194.084 63.3693 192.874 62.0353 191.3 61.0575C189.742 60.0798 187.902 59.5909 185.781 59.5909C183.445 59.5909 181.423 60.1709 179.716 61.331C178.026 62.4744 176.725 63.9659 175.813 65.8054C174.902 67.6449 174.446 69.6169 174.446 71.7216V75.1023C174.446 77.9858 174.943 80.4302 175.938 82.4354C176.948 84.424 178.349 85.9403 180.138 86.9844C181.928 88.0118 184.008 88.5256 186.378 88.5256C187.919 88.5256 189.311 88.3101 190.554 87.8793C191.813 87.4318 192.899 86.7689 193.81 85.8906C194.722 84.9957 195.426 83.8854 195.923 82.5597L201.591 84.1506C200.994 86.0729 199.992 87.7633 198.583 89.2216C197.174 90.6634 195.434 91.7902 193.363 92.6023C191.291 93.3977 188.963 93.7955 186.378 93.7955ZM216.978 42.0909V93H211.112V42.0909H216.978ZM243.234 93.7955C239.787 93.7955 236.763 92.9751 234.161 91.3345C231.576 89.6939 229.554 87.3987 228.096 84.4489C226.654 81.4991 225.933 78.0521 225.933 74.108C225.933 70.1307 226.654 66.6589 228.096 63.6925C229.554 60.7261 231.576 58.4226 234.161 56.782C236.763 55.1413 239.787 54.321 243.234 54.321C246.681 54.321 249.697 55.1413 252.282 56.782C254.884 58.4226 256.906 60.7261 258.348 63.6925C259.806 66.6589 260.535 70.1307 260.535 74.108C260.535 78.0521 259.806 81.4991 258.348 84.4489C256.906 87.3987 254.884 89.6939 252.282 91.3345C249.697 92.9751 246.681 93.7955 243.234 93.7955ZM243.234 88.5256C245.853 88.5256 248.007 87.8544 249.697 86.5121C251.388 85.1697 252.639 83.4048 253.451 81.2173C254.263 79.0298 254.669 76.66 254.669 74.108C254.669 71.5559 254.263 69.1778 253.451 66.9737C252.639 64.7696 251.388 62.9882 249.697 61.6293C248.007 60.2704 245.853 59.5909 243.234 59.5909C240.616 59.5909 238.461 60.2704 236.771 61.6293C235.081 62.9882 233.83 64.7696 233.018 66.9737C232.206 69.1778 231.8 71.5559 231.8 74.108C231.8 76.66 232.206 79.0298 233.018 81.2173C233.83 83.4048 235.081 85.1697 236.771 86.5121C238.461 87.8544 240.616 88.5256 243.234 88.5256ZM269.49 107.318V54.8182H275.158V60.8835H275.854C276.285 60.2206 276.882 59.3755 277.644 58.348C278.423 57.304 279.533 56.3759 280.975 55.5639C282.433 54.7353 284.405 54.321 286.891 54.321C290.106 54.321 292.94 55.1248 295.392 56.7322C297.845 58.3397 299.759 60.6184 301.135 63.5682C302.51 66.518 303.198 69.9981 303.198 74.0085C303.198 78.0521 302.51 81.5571 301.135 84.5234C299.759 87.4732 297.853 89.7602 295.417 91.3842C292.981 92.9917 290.172 93.7955 286.99 93.7955C284.538 93.7955 282.574 93.3894 281.099 92.5774C279.624 91.7488 278.489 90.8125 277.694 89.7685C276.898 88.7079 276.285 87.8295 275.854 87.1335H275.357V107.318H269.49ZM275.257 73.9091C275.257 76.7926 275.68 79.3364 276.525 81.5405C277.37 83.728 278.605 85.4432 280.229 86.6861C281.853 87.9124 283.842 88.5256 286.195 88.5256C288.648 88.5256 290.694 87.8793 292.335 86.5866C293.992 85.2775 295.235 83.5208 296.064 81.3168C296.909 79.0961 297.331 76.6269 297.331 73.9091C297.331 71.2244 296.917 68.8049 296.088 66.6506C295.276 64.4796 294.042 62.7644 292.385 61.505C290.744 60.2289 288.681 59.5909 286.195 59.5909C283.809 59.5909 281.803 60.1958 280.179 61.4055C278.555 62.5987 277.329 64.2725 276.5 66.4268C275.672 68.5646 275.257 71.0587 275.257 73.9091ZM328.155 93.7955C324.476 93.7955 321.303 92.9834 318.635 91.3594C315.983 89.7188 313.936 87.4318 312.495 84.4986C311.069 81.5488 310.357 78.1184 310.357 74.2074C310.357 70.2964 311.069 66.8494 312.495 63.8665C313.936 60.867 315.942 58.5303 318.51 56.8565C321.096 55.1662 324.112 54.321 327.559 54.321C329.547 54.321 331.511 54.6525 333.45 55.3153C335.389 55.9782 337.154 57.0554 338.745 58.5469C340.336 60.0218 341.603 61.9773 342.548 64.4134C343.493 66.8494 343.965 69.849 343.965 73.4119V75.8977H314.533V70.8267H337.999C337.999 68.6723 337.568 66.75 336.706 65.0597C335.861 63.3693 334.651 62.0353 333.077 61.0575C331.519 60.0798 329.68 59.5909 327.559 59.5909C325.222 59.5909 323.2 60.1709 321.493 61.331C319.803 62.4744 318.502 63.9659 317.591 65.8054C316.679 67.6449 316.223 69.6169 316.223 71.7216V75.1023C316.223 77.9858 316.721 80.4302 317.715 82.4354C318.726 84.424 320.126 85.9403 321.916 86.9844C323.706 88.0118 325.785 88.5256 328.155 88.5256C329.696 88.5256 331.088 88.3101 332.331 87.8793C333.591 87.4318 334.676 86.7689 335.588 85.8906C336.499 84.9957 337.203 83.8854 337.701 82.5597L343.368 84.1506C342.772 86.0729 341.769 87.7633 340.36 89.2216C338.952 90.6634 337.212 91.7902 335.14 92.6023C333.069 93.3977 330.74 93.7955 328.155 93.7955ZM352.889 93V54.8182H358.556V60.5852H358.954C359.65 58.696 360.91 57.1631 362.733 55.9865C364.556 54.8099 366.61 54.2216 368.897 54.2216C369.328 54.2216 369.867 54.2299 370.513 54.2464C371.159 54.263 371.648 54.2879 371.98 54.321V60.2869C371.781 60.2372 371.325 60.1626 370.613 60.0632C369.917 59.9472 369.179 59.8892 368.4 59.8892C366.544 59.8892 364.887 60.2786 363.429 61.0575C361.987 61.8198 360.843 62.8804 359.998 64.2393C359.17 65.5817 358.755 67.1146 358.755 68.8381V93H352.889Z" fill="#707070"/>
</g>
<path d="M143.029 101.708L143.09 102.879L134.919 103.305L134.858 102.135L138.284 101.956L137.776 92.2322L139.095 92.1633L139.603 101.887L143.029 101.708Z" fill="#707070"/>
<path d="M143.029 101.708L144.028 101.656L143.975 100.657L142.977 100.71L143.029 101.708ZM143.09 102.879L143.142 103.877L144.141 103.825L144.089 102.826L143.09 102.879ZM134.919 103.305L133.921 103.358L133.973 104.356L134.972 104.304L134.919 103.305ZM134.858 102.135L134.806 101.136L133.807 101.189L133.86 102.187L134.858 102.135ZM138.284 101.956L138.336 102.955L139.335 102.903L139.283 101.904L138.284 101.956ZM137.776 92.2322L137.724 91.2336L136.725 91.2857L136.777 92.2844L137.776 92.2322ZM139.095 92.1633L140.094 92.1111L140.042 91.1125L139.043 91.1646L139.095 92.1633ZM139.603 101.887L138.605 101.939L138.657 102.938L139.655 102.886L139.603 101.887ZM142.03 101.76L142.091 102.931L144.089 102.826L144.028 101.656L142.03 101.76ZM143.038 101.88L134.867 102.307L134.972 104.304L143.142 103.877L143.038 101.88ZM135.918 103.253L135.857 102.083L133.86 102.187L133.921 103.358L135.918 103.253ZM134.91 103.134L138.336 102.955L138.232 100.958L134.806 101.136L134.91 103.134ZM139.283 101.904L138.775 92.18L136.777 92.2844L137.285 102.008L139.283 101.904ZM137.828 93.2308L139.147 93.1619L139.043 91.1646L137.724 91.2336L137.828 93.2308ZM138.097 92.2154L138.605 101.939L140.602 101.835L140.094 92.1111L138.097 92.2154ZM139.655 102.886L143.081 102.707L142.977 100.71L139.551 100.889L139.655 102.886Z" fill="#707070"/>
<g clip-path="url(#clip1_6_30)">
<rect x="118" y="59" width="40" height="34" rx="10" fill="#D22727"/>
<path d="M143.673 71.0659L154.312 86.3349L152.754 88.5734L134.741 83.8995L136.403 81.5118L150.571 85.5033L150.675 85.3541L142.012 73.4535L143.673 71.0659Z" fill="white"/>
<path d="M135.733 76.6071C134.6 77.8497 133.348 78.6715 131.978 79.0725C130.607 79.4627 129.204 79.4495 127.769 79.033C126.334 78.6057 124.955 77.7897 123.634 76.585C122.313 75.3802 121.369 74.0777 120.8 72.6775C120.231 71.2665 120.059 69.8694 120.285 68.4862C120.511 67.0923 121.154 65.8132 122.216 64.6489C122.829 63.9772 123.546 63.416 124.367 62.9652C125.188 62.5145 126.095 62.2502 127.089 62.1723C128.077 62.0892 129.129 62.2634 130.242 62.6947C131.356 63.1261 132.515 63.8905 133.718 64.9881L134.558 65.7538L125.492 75.6951L123.779 74.133L131.007 66.2068C130.28 65.5432 129.498 65.0966 128.661 64.867C127.83 64.6317 127.007 64.6294 126.191 64.86C125.381 65.085 124.65 65.5557 123.996 66.2722C123.276 67.0615 122.849 67.9231 122.716 68.857C122.581 69.7801 122.684 70.679 123.025 71.5535C123.365 72.428 123.891 73.1894 124.602 73.8377L125.744 74.8791C126.718 75.7673 127.697 76.3524 128.68 76.6342C129.663 76.9053 130.607 76.8994 131.511 76.6165C132.409 76.3284 133.223 75.7842 133.953 74.9837C134.428 74.4632 134.784 73.9266 135.021 73.3741C135.258 72.8108 135.369 72.24 135.353 71.6616C135.331 71.078 135.173 70.4981 134.879 69.9218L137.162 68.4975C137.627 69.2912 137.889 70.1505 137.948 71.0755C138.001 71.9954 137.846 72.9303 137.482 73.8801C137.113 74.8249 136.53 75.7339 135.733 76.6071Z" fill="white"/>
</g>
</g>
<defs>
<filter id="filter0_d_6_30" x="20.1648" y="42.0909" width="89.3352" height="59.7045" filterUnits="userSpaceOnUse" color-interpolation-filters="sRGB">
<feFlood flood-opacity="0" result="BackgroundImageFix"/>
<feColorMatrix in="SourceAlpha" type="matrix" values="0 0 0 0 0 0 0 0 0 0 0 0 0 0 0 0 0 0 127 0" result="hardAlpha"/>
<feOffset dy="4"/>
<feGaussianBlur stdDeviation="2"/>
<feComposite in2="hardAlpha" operator="out"/>
<feColorMatrix type="matrix" values="0 0 0 0 0 0 0 0 0 0 0 0 0 0 0 0 0 0 0.25 0"/>
<feBlend mode="normal" in2="BackgroundImageFix" result="effect1_dropShadow_6_30"/>
<feBlend mode="normal" in="SourceGraphic" in2="effect1_dropShadow_6_30" result="shape"/>
</filter>
<filter id="filter1_d_6_30" x="164.58" y="42.0909" width="211.4" height="73.2273" filterUnits="userSpaceOnUse" color-interpolation-filters="sRGB">
<feFlood flood-opacity="0" result="BackgroundImageFix"/>
<feColorMatrix in="SourceAlpha" type="matrix" values="0 0 0 0 0 0 0 0 0 0 0 0 0 0 0 0 0 0 127 0" result="hardAlpha"/>
<feOffset dy="4"/>
<feGaussianBlur stdDeviation="2"/>
<feComposite in2="hardAlpha" operator="out"/>
<feColorMatrix type="matrix" values="0 0 0 0 0 0 0 0 0 0 0 0 0 0 0 0 0 0 0.25 0"/>
<feBlend mode="normal" in2="BackgroundImageFix" result="effect1_dropShadow_6_30"/>
<feBlend mode="normal" in="SourceGraphic" in2="effect1_dropShadow_6_30" result="shape"/>
</filter>
<clipPath id="clip0_6_30">
<rect width="400" height="150" fill="white"/>
</clipPath>
<clipPath id="clip1_6_30">
<rect x="118" y="59" width="40" height="34" rx="10" fill="white"/>
</clipPath>
</defs>
</svg>
